<svg width="71" height="71" viewBox="0 0 71 71" fill="none" xmlns="http://www.w3.org/2000/svg">
<g clip-path="url(#clip0_14_181)">
<path d="M66.2667 16.5667H55.6167V11.676C55.6177 10.9675 55.3469 10.2857 54.8602 9.77096C54.3734 9.25622 53.7077 8.94784 53.0003 8.90936C44.3087 8.44904 39.6926 3.83286 37.7128 1.12184C37.4597 0.772455 37.1269 0.488445 36.7421 0.293355C36.3572 0.0982643 35.9314 -0.00228608 35.5 3.94383e-05C35.0683 -0.00176008 34.6425 0.0991352 34.2575 0.294396C33.8725 0.489656 33.5395 0.773681 33.286 1.12302C31.3074 3.83286 26.6889 8.44904 18.0009 8.90936C17.2933 8.94755 16.6273 9.2558 16.1403 9.77057C15.6532 10.2853 15.3823 10.9673 15.3833 11.676V16.5667H4.73333C3.47798 16.5667 2.27403 17.0654 1.38636 17.9531C0.498689 18.8407 0 20.0447 0 21.3L0 66.2667C0 67.5221 0.498689 68.726 1.38636 69.6137C2.27403 70.5014 3.47798 71 4.73333 71H66.2667C67.522 71 68.726 70.5014 69.6136 69.6137C70.5013 68.726 71 67.5221 71 66.2667V21.3C71 20.0447 70.5013 18.8407 69.6136 17.9531C68.726 17.0654 67.522 16.5667 66.2667 16.5667ZM68.6333 21.3V29.5834H62.7167V18.9334H66.2667C66.8943 18.9334 67.4963 19.1827 67.9402 19.6266C68.384 20.0704 68.6333 20.6724 68.6333 21.3ZM16.7406 31.95C18.1327 36.0371 20.5427 39.7023 23.7436 42.6H2.36667V31.95H16.7406ZM8.28333 44.9667V55.6167H2.36667V44.9667H8.28333ZM10.65 44.9667H26.8226C29.1198 46.4717 31.6529 47.5813 34.3167 48.2493V55.6167H10.65V44.9667ZM47.3333 57.9834V68.6334H23.6667V57.9834H47.3333ZM36.6833 55.6167V48.2493C39.3471 47.5813 41.8802 46.4717 44.1774 44.9667H60.35V55.6167H36.6833ZM62.7167 44.9667H68.6333V55.6167H62.7167V44.9667ZM47.2564 42.6C50.4569 39.702 52.8669 36.0369 54.2594 31.95H68.6333V42.6H47.2564ZM60.35 18.9334V29.5834H54.9315C55.3804 27.7031 55.6104 25.7773 55.6167 23.8442V18.9334H60.35ZM17.75 11.676C17.7489 11.5736 17.7873 11.4747 17.8571 11.3998C17.9269 11.3249 18.0229 11.2797 18.1251 11.2737C21.4491 11.2076 24.7143 10.3846 27.6726 8.86727C30.6308 7.34992 33.2041 5.17813 35.1971 2.51699C35.2322 2.46975 35.2779 2.43137 35.3305 2.40493C35.3831 2.3785 35.4411 2.36473 35.5 2.36473C35.5589 2.36473 35.6169 2.3785 35.6695 2.40493C35.7221 2.43137 35.7678 2.46975 35.8029 2.51699C38.0288 5.56644 43.207 10.7589 52.8761 11.2737C52.9781 11.28 53.0738 11.3253 53.1433 11.4002C53.2129 11.4751 53.2511 11.5738 53.25 11.676V23.8442C53.25 29.0186 51.4943 34.0398 48.27 38.0868C45.0457 42.1337 40.5436 44.9669 35.5 46.1228C30.4565 44.9667 25.9545 42.1335 22.7302 38.0866C19.506 34.0397 17.7502 29.0185 17.75 23.8442V11.676ZM16.0685 29.5834H10.65V18.9334H15.3833V23.8442C15.3896 25.7773 15.6196 27.7031 16.0685 29.5834ZM4.73333 18.9334H8.28333V29.5834H2.36667V21.3C2.36667 20.6724 2.61601 20.0704 3.05985 19.6266C3.50368 19.1827 4.10565 18.9334 4.73333 18.9334ZM2.36667 66.2667V57.9834H21.3V68.6334H4.73333C4.10565 68.6334 3.50368 68.384 3.05985 67.9402C2.61601 67.4964 2.36667 66.8944 2.36667 66.2667ZM66.2667 68.6334H49.7V57.9834H68.6333V66.2667C68.6333 66.8944 68.384 67.4964 67.9402 67.9402C67.4963 68.384 66.8943 68.6334 66.2667 68.6334Z" fill="white"/>
<path d="M34.1191 43.2935C35.0165 43.5854 35.9835 43.5854 36.881 43.2935C40.9485 41.9116 44.4835 39.2951 46.9935 35.8088C49.5034 32.3225 50.8632 28.14 50.8833 23.8442V15.5088C50.8803 14.9551 50.6837 14.4198 50.3275 13.9958C49.9714 13.5718 49.4781 13.2857 48.9332 13.1871C44.5159 12.4104 40.4042 10.4129 37.0632 7.42073C36.6341 7.03406 36.077 6.82007 35.4994 6.82007C34.9218 6.82007 34.3647 7.03406 33.9356 7.42073C30.5955 10.4129 26.4846 12.4104 22.068 13.1871C21.5229 13.2855 21.0293 13.5714 20.6729 13.9955C20.3165 14.4195 20.1197 14.9549 20.1167 15.5088V23.8442C20.1368 28.14 21.4966 32.3225 24.0065 35.8088C26.5165 39.2951 30.0516 41.9116 34.1191 43.2935ZM22.5023 15.5136C27.3382 14.6665 31.8366 12.4712 35.4799 9.18035C39.1473 12.4688 43.6643 14.6615 48.5167 15.5088V23.8442C48.5001 27.6424 47.2992 31.3408 45.0811 34.4241C42.863 37.5073 39.7384 39.8219 36.1426 41.0452C35.725 41.1813 35.275 41.1813 34.8575 41.0452C31.2616 39.8219 28.137 37.5073 25.9189 34.4241C23.7008 31.3408 22.4999 27.6424 22.4833 23.8442L22.5023 15.5136Z" fill="white"/>
<path d="M32.2967 30.42C32.5186 30.6419 32.8195 30.7666 33.1333 30.7667H33.2173C33.3867 30.7543 33.5514 30.7056 33.7002 30.6239C33.8491 30.5423 33.9786 30.4295 34.08 30.2934L41.18 20.8267C41.3683 20.5756 41.4492 20.26 41.4048 19.9493C41.3604 19.6387 41.1944 19.3583 40.9433 19.17C40.6923 18.9817 40.3767 18.9009 40.066 18.9452C39.7553 18.9896 39.475 19.1556 39.2867 19.4067L33.0055 27.7823L31.6033 26.3801C31.3801 26.1645 31.0812 26.0452 30.7709 26.0479C30.4607 26.0506 30.1639 26.1751 29.9445 26.3945C29.7251 26.6139 29.6006 26.9107 29.5979 27.2209C29.5952 27.5312 29.7145 27.8301 29.93 28.0533L32.2967 30.42Z" fill="white"/>
</g>
<defs>
<clipPath id="clip0_14_181">
<rect width="71" height="71" fill="white"/>
</clipPath>
</defs>
</svg>
