<svg width="71" height="71" viewBox="0 0 71 71" fill="none" xmlns="http://www.w3.org/2000/svg">
<g clip-path="url(#clip0_14_146)">
<path d="M45.893 20.6673C45.635 20.408 45.2774 20.261 44.9127 20.261C44.548 20.261 44.1904 20.408 43.9324 20.6673C43.6731 20.9252 43.5261 21.2815 43.5261 21.6462C43.5261 22.0123 43.6731 22.3685 43.9324 22.6278C44.1904 22.8858 44.548 23.0328 44.9127 23.0328C45.2774 23.0328 45.635 22.8858 45.893 22.6278C46.1509 22.3685 46.2993 22.0123 46.2993 21.6462C46.2993 21.2815 46.1509 20.9251 45.893 20.6673Z" fill="white"/>
<path d="M70.594 52.9508L51.0747 33.4316L66.6191 17.8873C66.7962 17.7102 66.9221 17.4884 66.9831 17.2458L70.872 1.81161C70.9913 1.33846 70.853 0.837438 70.508 0.492284C70.163 0.147269 69.6621 0.00873632 69.1887 0.128271L53.7544 4.01676C53.5116 4.07792 53.2897 4.20383 53.1129 4.38077L37.5684 19.9252L27.7543 10.1108L18.0491 0.406031C17.5078 -0.135344 16.6298 -0.135344 16.0883 0.406031L0.416708 16.0777C-0.124666 16.6191 -0.124666 17.497 0.416708 18.0387L19.9358 37.5578L2.48721 55.0066C0.883477 56.6103 0 58.7428 0 61.0108C0 63.2791 0.883338 65.4113 2.48708 67.0153L3.98459 68.5128C5.58833 70.1165 7.72082 70.9999 9.98907 70.9999C12.2572 70.9999 14.3895 70.1165 15.9934 68.5128L33.4422 51.064L52.9615 70.5832C53.2323 70.854 53.587 70.9893 53.9419 70.9893C54.2967 70.9893 54.6516 70.854 54.9223 70.5832L70.5938 54.9116C71.1352 54.3702 71.1352 53.4922 70.594 52.9508ZM49.1305 31.4541L47.539 29.8625L62.0862 15.3153L63.6777 16.9068L49.1305 31.4541ZM67.6161 3.38386L66.6719 7.13105L63.869 4.32808L67.6161 3.38386ZM60.7362 5.1174L65.8826 10.2638L64.8911 14.1986L56.8016 6.1089L60.7362 5.1174ZM54.0933 7.32228L55.6848 8.91381L47.5405 17.0581C46.9991 17.5995 46.9991 18.4774 47.5405 19.0191C47.8113 19.2899 48.1661 19.4253 48.5209 19.4253C48.8758 19.4253 49.2306 19.2899 49.5013 19.0191L57.6457 10.8748L60.1252 13.3544L45.578 27.9017L39.5458 21.8695L54.0933 7.32228ZM14.0325 66.5521C12.9523 67.6322 11.5165 68.227 9.98893 68.227C8.46133 68.227 7.02538 67.6322 5.94541 66.5521L4.44789 65.0545C3.36778 63.9745 2.77302 62.5385 2.77302 61.0109C2.77302 59.4836 3.36778 58.0475 4.44789 56.9674L7.89208 53.5231L17.4766 63.1077L14.0325 66.5521ZM19.4379 61.1468L17.8463 59.5553L24.9441 52.4575C25.4855 51.9162 25.4855 51.0382 24.9441 50.4966C24.4027 49.9551 23.5248 49.9552 22.9832 50.4966L15.8854 57.5943L9.85317 51.5621L21.8967 39.5185L31.4814 49.1032L19.4379 61.1468ZM64.4738 57.11L53.7601 46.3961C53.2187 45.8548 52.3408 45.8548 51.7991 46.3961C51.2577 46.9374 51.2577 47.8154 51.7991 48.357L62.513 59.0709L53.9419 67.6421L51.1906 64.8908L54.9087 61.1728C55.4501 60.6314 55.4501 59.7535 54.9087 59.2118C54.3673 58.6704 53.4894 58.6704 52.9477 59.2118L49.2297 62.9299L45.8006 59.5008L47.1657 58.1357C47.7071 57.5943 47.7071 56.7164 47.1657 56.1748C46.6243 55.6334 45.7464 55.6334 45.2047 56.1748L43.8396 57.5398L40.4106 54.1108L41.7757 52.7457C42.317 52.2043 42.317 51.3264 41.7757 50.7847C41.2343 50.2434 40.3564 50.2434 39.8147 50.7847L38.4496 52.1498L35.0205 48.7207L38.7386 45.0027C39.28 44.4613 39.28 43.5834 38.7386 43.0417C38.1972 42.5004 37.3193 42.5004 36.7777 43.0417L33.0601 46.7592L29.6311 43.3302L30.9956 41.9656C31.537 41.4243 31.537 40.5462 30.9956 40.0047C30.4542 39.4633 29.5763 39.4633 29.0346 40.0047L27.6701 41.3692L24.241 37.9401L25.6056 36.5756C26.1469 36.0342 26.1469 35.1563 25.6056 34.6147C25.0642 34.0733 24.1863 34.0733 23.6446 34.6147L22.2795 35.9797L18.8505 32.5507L22.5685 28.8326C23.1099 28.2912 23.1099 27.4133 22.5685 26.8716C22.0272 26.3303 21.1492 26.3303 20.6076 26.8716L16.8895 30.5897L13.4604 27.1606L14.8255 25.7956C15.3669 25.2542 15.3669 24.3763 14.8255 23.8346C14.2841 23.2932 13.4062 23.2932 12.8646 23.8346L11.4995 25.1997L8.07041 21.7706L9.43549 20.4055C9.97687 19.8642 9.97687 18.9862 9.43549 18.4446C8.89412 17.9032 8.01619 17.9032 7.47454 18.4446L6.10946 19.8097L3.35821 17.0584L11.9294 8.48726L43.9877 40.5456C44.2586 40.8165 44.6133 40.9518 44.9682 40.9518C45.323 40.9518 45.6779 40.8165 45.9486 40.5456C46.4899 40.0043 46.4899 39.1263 45.9486 38.5847L13.89 6.52603L17.0688 3.34726L25.7935 12.0719L67.6528 53.9313L64.4738 57.11Z" fill="white"/>
<path d="M49.8931 42.5285C49.6352 42.2705 49.2775 42.1235 48.9128 42.1235C48.5481 42.1235 48.1905 42.2705 47.9326 42.5285C47.6746 42.7878 47.5262 43.144 47.5262 43.5101C47.5262 43.8748 47.6746 44.2311 47.9326 44.4904C48.1905 44.7483 48.5481 44.8953 48.9128 44.8953C49.2775 44.8953 49.6352 44.7483 49.8931 44.4904C50.151 44.2311 50.2994 43.8748 50.2994 43.5101C50.2994 43.1442 50.151 42.7878 49.8931 42.5285Z" fill="white"/>
</g>
<defs>
<clipPath id="clip0_14_146">
<rect width="71" height="71" fill="white"/>
</clipPath>
</defs>
</svg>
