<svg width="71" height="71" viewBox="0 0 71 71" fill="none" xmlns="http://www.w3.org/2000/svg">
<g clip-path="url(#clip0_14_171)">
<path d="M15.8071 41.0812C16.0576 41.081 16.3035 41.0129 16.5184 40.8841C16.7334 40.7554 16.9094 40.5708 17.0279 40.35C17.1463 40.1292 17.2027 39.8805 17.1911 39.6302C17.1795 39.3799 17.1003 39.1374 16.9619 38.9286C15.8427 37.2336 15.1095 35.3134 14.8141 33.3038C14.5188 31.2942 14.6685 29.2442 15.2527 27.2989C15.8369 25.3535 16.8414 23.5602 18.195 22.0458C19.5487 20.5315 21.2185 19.3329 23.0864 18.535C24.9543 17.7371 26.9746 17.3592 29.0047 17.4282C31.0347 17.4971 33.0248 18.0112 34.8342 18.934C36.6437 19.8569 38.2283 21.1659 39.4761 22.7687C40.7239 24.3714 41.6043 26.2287 42.0552 28.2092C42.1363 28.568 42.3566 28.8798 42.6676 29.0761C42.9787 29.2724 43.3549 29.3371 43.7137 29.2559C44.0724 29.1748 44.3842 28.9545 44.5805 28.6435C44.7768 28.3324 44.8415 27.9561 44.7604 27.5974C44.22 25.2202 43.1639 22.9908 41.6668 21.0668C40.1696 19.1428 38.2681 17.5713 36.0965 16.4634C33.925 15.3554 31.5366 14.7381 29.1002 14.6552C26.6637 14.5722 24.2388 15.0255 21.997 15.9832C19.7551 16.9408 17.751 18.3793 16.1264 20.197C14.5019 22.0146 13.2965 24.167 12.5957 26.502C11.8948 28.8369 11.7155 31.2973 12.0705 33.7091C12.4254 36.121 13.306 38.4254 14.6499 40.4594C14.7762 40.6507 14.9481 40.8077 15.1501 40.9162C15.352 41.0247 15.5778 41.0814 15.8071 41.0812Z" fill="white"/>
<path d="M28.5312 10.7441C28.899 10.7441 29.2517 10.598 29.5117 10.338C29.7718 10.0779 29.9179 9.7252 29.9179 9.35742V4.13892C29.9179 3.77114 29.7718 3.41842 29.5117 3.15836C29.2517 2.8983 28.899 2.7522 28.5312 2.7522C28.1634 2.7522 27.8107 2.8983 27.5506 3.15836C27.2906 3.41842 27.1445 3.77114 27.1445 4.13892V9.35742C27.1445 9.7252 27.2906 10.0779 27.5506 10.338C27.8107 10.598 28.1634 10.7441 28.5312 10.7441Z" fill="white"/>
<path d="M16.3673 12.9882C16.5512 13.3067 16.8541 13.5391 17.2093 13.6343C17.5646 13.7295 17.9431 13.6797 18.2616 13.4958C18.5801 13.3119 18.8126 13.009 18.9078 12.6537C19.003 12.2985 18.9531 11.92 18.7692 11.6014L16.1598 7.08213C15.9747 6.76622 15.672 6.53639 15.318 6.4428C14.964 6.3492 14.5873 6.39943 14.2702 6.58253C13.9531 6.76562 13.7212 7.06672 13.6253 7.42012C13.5293 7.77351 13.5771 8.15051 13.7581 8.46884L16.3673 12.9882Z" fill="white"/>
<path d="M4.33017 18.912L8.84935 21.522C9.00712 21.6145 9.18162 21.6748 9.36281 21.6996C9.54401 21.7244 9.72832 21.7131 9.90512 21.6663C10.0819 21.6196 10.2477 21.5383 10.393 21.4273C10.5383 21.3162 10.6602 21.1774 10.7516 21.0191C10.843 20.8607 10.9023 20.6858 10.9258 20.5044C10.9494 20.3231 10.9369 20.1388 10.8889 19.9624C10.841 19.7859 10.7587 19.6206 10.6466 19.4761C10.5346 19.3315 10.395 19.2106 10.2361 19.1202L5.71689 16.5102C5.55912 16.4178 5.38462 16.3574 5.20342 16.3326C5.02223 16.3078 4.83792 16.3191 4.66112 16.3659C4.48431 16.4126 4.3185 16.4939 4.17322 16.605C4.02795 16.7161 3.90608 16.8548 3.81464 17.0132C3.7232 17.1715 3.66399 17.3464 3.64041 17.5278C3.61684 17.7092 3.62937 17.8934 3.67729 18.0699C3.72521 18.2464 3.80756 18.4116 3.91961 18.5562C4.03166 18.7007 4.17119 18.8217 4.33017 18.912Z" fill="white"/>
<path d="M7.99194 31.2832C7.99194 30.9154 7.84584 30.5627 7.58578 30.3026C7.32572 30.0426 6.973 29.8965 6.60522 29.8965H1.38672C1.01894 29.8965 0.666221 30.0426 0.406161 30.3026C0.1461 30.5627 0 30.9154 0 31.2832C0 31.651 0.1461 32.0037 0.406161 32.2638C0.666221 32.5238 1.01894 32.6699 1.38672 32.6699H6.60522C6.973 32.6699 7.32572 32.5238 7.58578 32.2638C7.84584 32.0037 7.99194 31.651 7.99194 31.2832Z" fill="white"/>
<path d="M10.7437 41.553C10.6527 41.3953 10.5315 41.257 10.387 41.1462C10.2425 41.0353 10.0776 40.954 9.90167 40.9069C9.72575 40.8597 9.54228 40.8477 9.36172 40.8715C9.18117 40.8953 9.00706 40.9544 8.84935 41.0455L4.33017 43.6547C4.17119 43.7451 4.03166 43.866 3.91961 44.0106C3.80756 44.1551 3.72521 44.3204 3.67729 44.4969C3.62937 44.6734 3.61684 44.8576 3.64041 45.0389C3.66399 45.2203 3.7232 45.3952 3.81464 45.5536C3.90608 45.712 4.02795 45.8507 4.17322 45.9618C4.3185 46.0729 4.48431 46.1541 4.66112 46.2009C4.83792 46.2476 5.02223 46.2589 5.20342 46.2341C5.38462 46.2094 5.55912 46.149 5.71689 46.0565L10.2361 43.4474C10.3938 43.3563 10.5321 43.2351 10.6429 43.0906C10.7538 42.9462 10.8351 42.7813 10.8823 42.6053C10.9294 42.4294 10.9415 42.246 10.9177 42.0654C10.8939 41.8848 10.8348 41.7107 10.7437 41.553Z" fill="white"/>
<path d="M47.5212 21.7072C47.7642 21.7073 48.0029 21.6431 48.2132 21.5213L52.7325 18.912C52.8915 18.8217 53.031 18.7007 53.143 18.5562C53.2551 18.4116 53.3374 18.2464 53.3854 18.0699C53.4333 17.8934 53.4458 17.7092 53.4222 17.5278C53.3987 17.3464 53.3395 17.1715 53.248 17.0132C53.1566 16.8548 53.0347 16.7161 52.8894 16.605C52.7442 16.4939 52.5783 16.4126 52.4015 16.3659C52.2247 16.3191 52.0404 16.3078 51.8592 16.3326C51.678 16.3574 51.5035 16.4178 51.3458 16.5102L46.8264 19.1195C46.5619 19.2722 46.3552 19.5079 46.2384 19.7901C46.1215 20.0723 46.1011 20.3851 46.1803 20.6801C46.2595 20.9751 46.4339 21.2356 46.6763 21.4214C46.9188 21.6071 47.2158 21.7076 47.5212 21.7072Z" fill="white"/>
<path d="M38.8004 13.4957C39.1189 13.6796 39.4974 13.7294 39.8526 13.6342C40.2079 13.5391 40.5108 13.3067 40.6946 12.9882L43.3038 8.46884C43.4847 8.15051 43.5325 7.77351 43.4365 7.42012C43.3406 7.06672 43.1088 6.76562 42.7916 6.58253C42.4745 6.39943 42.0978 6.3492 41.7438 6.4428C41.3898 6.53639 41.0872 6.76622 40.902 7.08213L38.2929 11.6014C38.109 11.9199 38.0591 12.2984 38.1543 12.6537C38.2495 13.0089 38.4819 13.3118 38.8004 13.4957Z" fill="white"/>
<path d="M62.5951 45.8813C63.2376 42.8291 62.7832 39.6481 61.3119 36.8979C59.8406 34.1476 57.4466 32.0043 54.551 30.8448C51.6554 29.6854 48.4437 29.5842 45.4808 30.559C42.518 31.5338 39.9938 33.5221 38.3522 36.1743C35.8041 35.1558 32.9583 35.1767 30.4254 36.2325C27.8925 37.2882 25.8743 39.2948 24.804 41.8216C22.9872 41.5078 21.125 41.5749 19.3355 42.0187C17.5461 42.4624 15.8683 43.2731 14.4086 44.3993C12.9488 45.5255 11.739 46.9426 10.8557 48.561C9.97249 50.1793 9.43508 51.9635 9.27758 53.8004C9.12009 55.6373 9.34593 57.487 9.94081 59.232C10.5357 60.9771 11.4866 62.5795 12.7333 63.9378C13.98 65.296 15.4953 66.3805 17.1832 67.1223C18.871 67.8642 20.6945 68.2473 22.5382 68.2474H59.6191C62.3772 68.2469 65.0412 67.2448 67.116 65.4275C69.1907 63.6102 70.5349 61.1013 70.8987 58.3673C71.2625 55.6332 70.6211 52.8602 69.0938 50.5635C67.5664 48.2669 65.2571 46.6031 62.5951 45.8813ZM59.6185 65.4744H22.5376C21.0355 65.4733 19.5511 65.151 18.1837 64.5291C16.8164 63.9072 15.5979 63.0002 14.6098 61.8688C13.6218 60.7374 12.8871 59.4078 12.455 57.9692C12.0229 56.5306 11.9034 55.0163 12.1045 53.5277C12.3056 52.0391 12.8227 50.6108 13.6211 49.3384C14.4195 48.0661 15.4807 46.9791 16.7335 46.1505C17.9864 45.3219 19.402 44.7707 20.8853 44.534C22.3686 44.2973 23.8854 44.3805 25.334 44.7781C25.6871 44.8751 26.0642 44.8285 26.3831 44.6484C26.702 44.4684 26.9367 44.1695 27.036 43.8171C27.3534 42.6927 27.922 41.6551 28.6989 40.7826C29.4759 39.9101 30.4409 39.2255 31.5211 38.7805C32.6013 38.3355 33.7685 38.1416 34.9345 38.2136C36.1006 38.2855 37.2351 38.6215 38.2524 39.196C38.4174 39.2893 38.5998 39.3479 38.7883 39.3679C38.9769 39.388 39.1675 39.3692 39.3485 39.3127C39.5295 39.2562 39.697 39.1632 39.8406 39.0394C39.9842 38.9156 40.1009 38.7637 40.1835 38.593C41.3455 36.1935 43.378 34.3268 45.8675 33.3728C48.357 32.4188 51.1165 32.4491 53.5844 33.4575C56.0524 34.4659 58.0434 36.3768 59.1525 38.8012C60.2615 41.2256 60.4052 43.9815 59.5543 46.5081C59.4885 46.703 59.4668 46.91 59.4909 47.1143C59.5149 47.3185 59.5841 47.5149 59.6934 47.6891C59.8027 47.8633 59.9494 48.011 60.1229 48.1215C60.2963 48.232 60.4922 48.3026 60.6963 48.3281C62.8686 48.6018 64.855 49.6932 66.2509 51.38C67.6469 53.0668 68.3475 55.2222 68.2102 57.4074C68.0728 59.5926 67.1078 61.6433 65.5116 63.1421C63.9154 64.6408 61.808 65.4748 59.6185 65.4744Z" fill="white"/>
</g>
<defs>
<clipPath id="clip0_14_171">
<rect width="71" height="71" fill="white"/>
</clipPath>
</defs>
</svg>
