<svg width="35" height="35" viewBox="0 0 35 35" fill="none" xmlns="http://www.w3.org/2000/svg">
<g clip-path="url(#clip0_12_486)">
<path d="M17.5 9.13354C12.8868 9.13354 9.13345 12.8869 9.13345 17.5001C9.13345 22.1133 12.8868 25.8666 17.5 25.8666C22.1132 25.8666 25.8665 22.1133 25.8665 17.5001C25.8665 12.8869 22.1132 9.13354 17.5 9.13354ZM17.5 23.775C14.0401 23.775 11.2251 20.96 11.2251 17.5001C11.2251 14.0402 14.0401 11.2252 17.5 11.2252C20.9599 11.2252 23.7749 14.0402 23.7749 17.5001C23.7749 20.96 20.9599 23.775 17.5 23.775Z" fill="white"/>
<path d="M34.1765 13.5149L31.4864 12.9301C31.2525 12.2139 30.9628 11.5154 30.6207 10.8424L32.1099 8.52596C32.3759 8.11207 32.3174 7.56866 31.9698 7.22099L27.779 3.03024C27.4313 2.68257 26.8879 2.62409 26.474 2.89005L24.1576 4.37927C23.4846 4.03721 22.7861 3.74748 22.0699 3.51357L21.4851 0.823517C21.3807 0.342865 20.9551 0 20.4632 0H14.5368C14.0449 0 13.6193 0.342865 13.5149 0.823517L12.9301 3.51357C12.2139 3.74748 11.5154 4.03721 10.8424 4.37927L8.52596 2.89005C8.11207 2.62409 7.56866 2.68257 7.22099 3.03024L3.03024 7.22099C2.68257 7.56866 2.62409 8.11207 2.89005 8.52596L4.37927 10.8424C4.03721 11.5154 3.74748 12.2139 3.51357 12.9301L0.823517 13.5149C0.342865 13.6195 0 14.0449 0 14.5368V20.4632C0 20.9551 0.342865 21.3805 0.823517 21.4851L3.51357 22.0699C3.74748 22.7861 4.03721 23.4846 4.37927 24.1576L2.89005 26.474C2.62409 26.8879 2.68257 27.4313 3.03024 27.779L7.22099 31.9698C7.56866 32.3174 8.11207 32.3759 8.52596 32.1099L10.8424 30.6207C11.5154 30.9628 12.2139 31.2525 12.9301 31.4864L13.5149 34.1765C13.6193 34.6571 14.0449 35 14.5368 35H20.4632C20.9551 35 21.3807 34.6571 21.4851 34.1765L22.0699 31.4864C22.7861 31.2525 23.4846 30.9628 24.1576 30.6207L26.474 32.1099C26.8879 32.3759 27.4313 32.3177 27.779 31.9698L31.9698 27.779C32.3174 27.4313 32.3759 26.8879 32.1099 26.474L30.6207 24.1576C30.9628 23.4846 31.2525 22.7861 31.4864 22.0699L34.1765 21.4851C34.6571 21.3805 35 20.9551 35 20.4632V14.5368C35 14.0449 34.6571 13.6195 34.1765 13.5149ZM32.9084 19.6202L30.4418 20.1564C30.0629 20.2389 29.7606 20.5241 29.6565 20.8974C29.3855 21.8697 28.9956 22.8099 28.4978 23.6919C28.3072 24.0297 28.3189 24.4452 28.5288 24.7715L29.8947 26.8959L26.8962 29.8947L24.7715 28.5288C24.4452 28.3189 24.0297 28.3072 23.6921 28.4978C22.8099 28.9956 21.8697 29.3855 20.8974 29.6565C20.5241 29.7606 20.2389 30.0629 20.1564 30.4418L19.6202 32.9084H15.3798L14.8436 30.4418C14.7611 30.0629 14.4759 29.7606 14.1026 29.6565C13.1303 29.3855 12.1901 28.9956 11.3081 28.4978C10.9703 28.3072 10.5548 28.3192 10.2285 28.5288L8.10406 29.8947L5.10559 26.8959L6.47118 24.7715C6.68106 24.4452 6.69308 24.0297 6.50242 23.6919C6.00468 22.8099 5.61481 21.8697 5.34351 20.8974C5.23937 20.5241 4.93736 20.2389 4.55845 20.1564L2.09164 19.6202V15.3798L4.55818 14.8436C4.9371 14.7611 5.23937 14.4759 5.34351 14.1026C5.61455 13.1303 6.00441 12.1901 6.50215 11.3081C6.69281 10.9703 6.68106 10.5548 6.47118 10.2285L5.10532 8.10406L8.10379 5.10532L10.2285 6.47118C10.5548 6.68106 10.9703 6.69281 11.3079 6.50215C12.1901 6.00441 13.1303 5.61455 14.1026 5.34351C14.4759 5.23937 14.7611 4.9371 14.8436 4.55818L15.3798 2.09164H19.6202L20.1564 4.55818C20.2389 4.9371 20.5241 5.23937 20.8974 5.34351C21.8697 5.61455 22.8099 6.00441 23.6919 6.50215C24.0297 6.69281 24.4452 6.68079 24.7715 6.47118L26.8959 5.10532L29.8944 8.10406L28.5288 10.2285C28.3189 10.5548 28.3069 10.9703 28.4976 11.3081C28.9956 12.1901 29.3852 13.1303 29.6565 14.1026C29.7606 14.4759 30.0626 14.7611 30.4416 14.8436L32.9084 15.3798V19.6202Z" fill="white"/>
</g>
<defs>
<clipPath id="clip0_12_486">
<rect width="35" height="35" fill="white"/>
</clipPath>
</defs>
</svg>
