<svg width="34" height="34" viewBox="0 0 34 34" fill="none" xmlns="http://www.w3.org/2000/svg">
<g clip-path="url(#clip0_14_48)">
<path d="M12.3691 21.299C12.1928 20.8763 11.7788 20.6015 11.3208 20.6028C10.8626 20.6041 10.4505 20.8813 10.2766 21.305L8.80829 24.9459L8.37614 25.9857C7.96796 26.9763 8.05018 28.1009 8.59748 29.0219C9.0992 29.8841 9.98222 30.4548 10.9743 30.5581C11.0905 30.5703 11.2073 30.5763 11.324 30.5763C11.4405 30.5763 11.5569 30.5703 11.6726 30.5584C12.6653 30.4554 13.5491 29.8846 14.0508 29.0219C14.5984 28.1012 14.6803 26.9763 14.2721 25.9857L12.3691 21.299ZM13.0777 28.4422C12.7578 28.9961 12.1925 29.3639 11.5567 29.4319C11.4017 29.448 11.2455 29.448 11.0905 29.4319C10.455 29.3637 9.89026 28.9958 9.57036 28.4422C9.2054 27.8292 9.15033 27.0801 9.42174 26.4203L11.3216 21.7285L12.7944 25.3807L13.2265 26.4203C13.498 27.0801 13.4429 27.8292 13.0777 28.4422Z" fill="white"/>
<path d="M3.39716 19.252C3.08464 19.252 2.83115 19.5054 2.83115 19.8182V20.3845C2.83115 20.697 3.08464 20.9505 3.39716 20.9505C3.70995 20.9505 3.96344 20.697 3.96344 20.3845V19.8182C3.96344 19.5054 3.70995 19.252 3.39716 19.252Z" fill="white"/>
<path d="M3.39716 22.083C3.08464 22.083 2.83115 22.3365 2.83115 22.6493V30.0099C2.83115 30.3227 3.08464 30.5762 3.39716 30.5762C3.70995 30.5762 3.96344 30.3227 3.96344 30.0099V22.6493C3.96344 22.3365 3.70995 22.083 3.39716 22.083Z" fill="white"/>
<path d="M30.8073 18.3892C29.4202 17.6756 28.2202 17.0429 27.7857 15.6497L30.3675 13.0679C30.5799 12.8555 30.6993 12.5675 30.6993 12.2671C30.6993 11.9667 30.5799 11.6787 30.3675 11.4663L26.7646 7.86281C26.5005 7.59877 26.1232 7.4823 25.7561 7.55108L20.8093 0.484305C20.6172 0.209992 20.3139 0.0344955 19.9803 0.00524607C19.6467 -0.0237399 19.3175 0.095893 19.0807 0.332787L12.6534 6.76002C12.2972 7.11813 12.2202 7.6686 12.4642 8.11077L13.2961 9.60855L11.7986 8.77613C11.3562 8.53265 10.8062 8.60985 10.4476 8.96559L8.8249 10.5885C8.75481 10.6605 8.69446 10.7416 8.64598 10.8297C6.18244 10.9648 0 11.5113 0 13.5899V15.8548C0.0184456 16.2627 0.228462 16.6376 0.56628 16.8669V31.2487C0.569705 31.2808 0.57603 31.3124 0.585516 31.3435L0.586833 31.3512C0.594475 31.4018 0.608968 31.451 0.629785 31.4974C1.30885 33.4403 7.54926 33.9733 11.324 33.9733C15.3199 33.9733 22.082 33.377 22.082 31.1422V21.3534L24.1419 19.2935C25.5348 19.7281 26.1677 20.9278 26.8813 22.3152C27.2539 23.1155 27.7195 23.8688 28.2684 24.56C28.767 25.14 29.4863 25.4831 30.2505 25.5058C30.2853 25.5068 30.3201 25.5076 30.3549 25.5076C31.1132 25.5068 31.8405 25.2059 32.3773 24.6702L33.1628 23.8852C33.7238 23.3226 34.0263 22.5526 33.9981 21.7584C33.9757 20.9942 33.6324 20.2749 33.0527 19.7766C32.3612 19.2274 31.6076 18.7618 30.8073 18.3892ZM29.5672 12.2666L20.7589 21.0751L17.1557 17.4716L25.964 8.66361L29.5672 12.2666ZM1.46642 16.1177C1.33783 16.0542 1.224 15.9641 1.13282 15.8534L1.1323 15.8537V14.9678C1.35575 15.0774 1.58579 15.1728 1.82111 15.254L1.84588 15.2624L1.84772 15.2632C3.84907 15.9881 7.3872 16.421 11.324 16.421C12.4495 16.421 13.5744 16.3799 14.6748 16.3059L16.0437 17.2643C16.0406 17.2806 16.0413 17.2975 16.039 17.3141C14.4724 17.4745 12.8987 17.5544 11.324 17.5533C6.93475 17.5533 2.8841 16.9644 1.46642 16.1177ZM11.6086 14.1593L13.1699 15.2521C12.5572 15.2753 11.9409 15.2885 11.324 15.2885C8.95982 15.309 6.59825 15.1196 4.26726 14.7222C6.59825 14.3251 8.95982 14.1356 11.324 14.1562C11.4207 14.1578 11.5143 14.1586 11.6083 14.1593H11.6086ZM11.2484 9.76613L14.4785 11.5606C14.6996 11.6837 14.9752 11.6449 15.1541 11.4663C15.3328 11.2874 15.3715 11.0115 15.2484 10.7907L13.4542 7.56056L15.9167 5.09808L19.5233 9.4262C19.6511 9.58694 19.8562 9.66573 20.0585 9.63227C20.2612 9.5988 20.4298 9.45835 20.4991 9.2652C20.5687 9.07205 20.5281 8.85624 20.3932 8.70156L16.7207 4.29411L19.8815 1.13333L24.827 8.19878L16.6906 16.3351L9.62544 11.3893L11.2484 9.76613ZM8.65151 11.9656C8.73346 12.1045 8.84414 12.2244 8.97615 12.3172L10.0104 13.0408C6.72026 13.123 3.82087 13.5124 2.0277 14.1203C1.69357 14.0205 1.38711 13.8447 1.1323 13.6065V13.6036C1.30489 13.1525 3.67805 12.2376 8.65151 11.9656ZM11.324 32.841C5.33025 32.841 1.87803 31.7327 1.69858 31.1359V17.4714C3.65117 18.22 7.25307 18.6856 11.324 18.6856C13.0495 18.688 14.7733 18.5947 16.4883 18.4058L19.9581 21.8757C20.17 22.0888 20.4583 22.2082 20.7589 22.2074C20.823 22.2066 20.8867 22.2003 20.9497 22.1887V31.1346C20.7758 31.7311 17.3233 32.841 11.324 32.841ZM32.362 23.0846L31.5768 23.8699C31.2366 24.208 30.7717 24.3903 30.2924 24.374C29.8431 24.3619 29.4197 24.1611 29.1259 23.8209C28.6365 23.1964 28.2212 22.5173 27.8882 21.7971C27.2326 20.5223 26.5034 19.1046 25.0251 18.4103L26.9021 16.533C27.5965 18.0116 29.0139 18.7404 30.289 19.3963C31.0092 19.7294 31.6882 20.1447 32.3127 20.634C32.6529 20.9278 32.8537 21.351 32.8661 21.8003C32.883 22.2799 32.7006 22.7447 32.362 23.0846Z" fill="white"/>
<path d="M19.5579 16.6708L19.1576 17.071C19.0108 17.2133 18.9523 17.4236 19.0042 17.6212C19.0561 17.8189 19.2103 17.9733 19.4079 18.0252C19.6056 18.0771 19.8158 18.0183 19.9581 17.8718L20.3587 17.4716C20.575 17.2494 20.5726 16.895 20.3537 16.6758C20.1344 16.4568 19.7797 16.4544 19.5579 16.6708Z" fill="white"/>
<path d="M25.5632 10.6656L21.1595 15.0696C21.0127 15.2119 20.9542 15.4222 21.0061 15.6198C21.058 15.8175 21.2124 15.9719 21.4101 16.0238C21.6077 16.0757 21.818 16.0169 21.9603 15.8704L26.364 11.4662C26.5106 11.3239 26.5693 11.1136 26.5174 10.916C26.4655 10.7183 26.3111 10.5639 26.1134 10.5123C25.9158 10.4603 25.7055 10.5188 25.5632 10.6656Z" fill="white"/>
</g>
<defs>
<clipPath id="clip0_14_48">
<rect width="34" height="34" fill="white"/>
</clipPath>
</defs>
</svg>
