<svg width="34" height="34" viewBox="0 0 34 34" fill="none" xmlns="http://www.w3.org/2000/svg">
<g clip-path="url(#clip0_12_489)">
<path d="M0 0V34H34V0C32.5672 0 0.64932 0 0 0ZM1.99219 1.99219H2.4984C9.04108 1.99219 14.6735 7.06582 15.3212 13.5429C15.8239 18.5702 18.8721 23.0009 23.3991 25.2644C26.4515 26.7906 29.1177 29.1167 31.1359 32.0078H1.99219V1.99219ZM28.1738 25.9648H32.0078V29.8368C30.8759 28.3888 29.5873 27.0889 28.1738 25.9648ZM24.0391 14.0117V17.9961H18.689C18.0472 16.7667 17.6046 15.4241 17.3891 14.0117H24.0391ZM32.0078 14.0117V17.9961H26.0312V14.0117H32.0078ZM32.0078 23.9727H30.0156V19.9883H32.0078V23.9727ZM28.0234 19.9883V23.9727H25.2133C24.9093 23.802 24.6016 23.6383 24.2901 23.4825C22.5805 22.6277 21.1213 21.4292 19.981 19.9883H28.0234ZM32.0078 12.0195H30.0156V8.03516H32.0078V12.0195ZM28.0234 12.0195H22.0469V8.03516H28.0234V12.0195ZM18.0625 6.04297V1.99219H24.0391V6.04297H18.0625ZM20.0547 8.03516V12.0195H17.1089C16.8388 10.6263 16.367 9.28612 15.7138 8.03516H20.0547ZM32.0078 6.04297H26.0312V1.99219H32.0078V6.04297ZM16.0703 1.99219V6.04297H14.4624C13.2276 4.38547 11.6703 3.00966 9.90841 1.99219H16.0703Z" fill="white"/>
</g>
<defs>
<clipPath id="clip0_12_489">
<rect width="34" height="34" fill="white"/>
</clipPath>
</defs>
</svg>
