<svg width="34" height="34" viewBox="0 0 34 34" fill="none" xmlns="http://www.w3.org/2000/svg">
<path d="M32.8667 15.5834V7.24151L24.9333 4.59688V15.5834H23.8V3.11675H10.2V15.5834H9.06667V8.78341H7.93333V4.81675H5.66667V1.41675H4.53333V4.81675H2.26667V8.78341H1.13333V15.5834H0V31.4501H10.2V32.5834H23.8V31.4501H34V15.5834H32.8667ZM3.4 5.95008H6.8V8.78341H3.4V5.95008ZM2.26667 9.91675H7.93333V15.5834H2.26667V9.91675ZM10.2 30.3167H1.13333V16.7167H10.2V30.3167ZM18.1333 31.4501H15.8667V25.7834H18.1333V31.4501ZM22.6667 31.4501H19.2667V24.6501H14.7333V31.4501H11.3333V4.25008H22.6667V31.4501ZM26.0667 6.16995L31.7333 8.05865V15.5834H30.6V8.78341H29.4667V15.5834H28.3333V8.78341H27.2V15.5834H26.0667V6.16995ZM29.4667 30.3167H27.2V28.0501H29.4667V30.3167ZM32.8667 30.3167H30.6V26.9167H26.0667V30.3167H23.8V16.7167H32.8667V30.3167Z" fill="white"/>
<path d="M9.06666 17.8501H2.26666V18.9834H9.06666V17.8501Z" fill="white"/>
<path d="M9.06666 20.1167H2.26666V21.25H9.06666V20.1167Z" fill="white"/>
<path d="M9.06666 22.3833H2.26666V23.5166H9.06666V22.3833Z" fill="white"/>
<path d="M9.06666 24.6499H2.26666V25.7832H9.06666V24.6499Z" fill="white"/>
<path d="M13.0333 6.5166V9.9166H16.4333V6.5166H13.0333ZM15.3 8.78327H14.1667V7.64994H15.3V8.78327Z" fill="white"/>
<path d="M17.5667 6.5166V9.9166H20.9667V6.5166H17.5667ZM19.8333 8.78327H18.7V7.64994H19.8333V8.78327Z" fill="white"/>
<path d="M13.0333 11.05V14.45H16.4333V11.05H13.0333ZM15.3 13.3167H14.1667V12.1834H15.3V13.3167Z" fill="white"/>
<path d="M17.5667 11.05V14.45H20.9667V11.05H17.5667ZM19.8333 13.3167H18.7V12.1834H19.8333V13.3167Z" fill="white"/>
<path d="M13.0333 15.5833V18.9833H16.4333V15.5833H13.0333ZM15.3 17.8499H14.1667V16.7166H15.3V17.8499Z" fill="white"/>
<path d="M17.5667 15.5833V18.9833H20.9667V15.5833H17.5667ZM19.8333 17.8499H18.7V16.7166H19.8333V17.8499Z" fill="white"/>
<path d="M13.0333 20.1167V23.5167H16.4333V20.1167H13.0333ZM15.3 22.3834H14.1667V21.25H15.3V22.3834Z" fill="white"/>
<path d="M17.5667 20.1167V23.5167H20.9667V20.1167H17.5667ZM19.8333 22.3834H18.7V21.25H19.8333V22.3834Z" fill="white"/>
<path d="M26.0667 17.8501H24.9333V18.9834H26.0667V17.8501Z" fill="white"/>
<path d="M29.4667 17.8501H27.2V18.9834H29.4667V17.8501Z" fill="white"/>
<path d="M31.7333 17.8501H30.6V18.9834H31.7333V17.8501Z" fill="white"/>
<path d="M26.0667 20.1167H24.9333V21.25H26.0667V20.1167Z" fill="white"/>
<path d="M29.4667 20.1167H27.2V21.25H29.4667V20.1167Z" fill="white"/>
<path d="M31.7333 20.1167H30.6V21.25H31.7333V20.1167Z" fill="white"/>
<path d="M26.0667 22.3833H24.9333V23.5166H26.0667V22.3833Z" fill="white"/>
<path d="M29.4667 22.3833H27.2V23.5166H29.4667V22.3833Z" fill="white"/>
<path d="M31.7333 22.3833H30.6V23.5166H31.7333V22.3833Z" fill="white"/>
<path d="M26.0667 24.6499H24.9333V25.7832H26.0667V24.6499Z" fill="white"/>
<path d="M29.4667 24.6499H27.2V25.7832H29.4667V24.6499Z" fill="white"/>
<path d="M31.7333 24.6499H30.6V25.7832H31.7333V24.6499Z" fill="white"/>
</svg>
