<svg width="34" height="34" viewBox="0 0 34 34" fill="none" xmlns="http://www.w3.org/2000/svg">
<g clip-path="url(#clip0_14_37)">
<path d="M1.7 7.93336H2.26664V32.3C2.26664 33.2388 3.02779 34 3.96664 34H6.23329C7.17214 34 7.93329 33.2389 7.93329 32.3V7.93336H13.0333V9.06671H10.7666C9.82773 9.06671 9.06664 9.82786 9.06664 10.7667V32.3C9.06664 33.2388 9.82779 34 10.7666 34H32.3C33.2388 34 34 33.2389 34 32.3V10.7666C34 9.82773 33.2389 9.06664 32.3 9.06664H30.0334V7.93329H32.3C33.2388 7.93329 34 7.17214 34 6.23329V3.96664C34 3.02779 33.2389 2.26664 32.3 2.26664H30.0334V1.7C30.0334 1.38703 29.7796 1.13336 29.4667 1.13336C29.1537 1.13336 28.9001 1.38709 28.9001 1.7V2.26664H14.1666V1.7C14.1666 1.38703 13.9129 1.13336 13.6 1.13336C13.287 1.13336 13.0334 1.38709 13.0334 1.7V2.26664H7.93336V1.7C7.93336 0.761149 7.17221 0 6.23336 0H3.96664C3.02779 0 2.26664 0.761149 2.26664 1.7V2.26664H1.7C0.761149 2.26664 0 3.02779 0 3.96664V6.23329C0 7.17221 0.761149 7.93336 1.7 7.93336ZM32.3 10.2C32.613 10.2 32.8666 10.4537 32.8666 10.7666V32.3C32.8666 32.613 32.613 32.8666 32.3 32.8666H10.7666C10.4537 32.8666 10.2 32.613 10.2 32.3V10.7666C10.2 10.4537 10.4537 10.2 10.7666 10.2H13.0333V11.9C13.0333 12.213 13.287 12.4666 13.5999 12.4666C13.9129 12.4666 14.1666 12.213 14.1666 11.9V10.2H28.9V11.9C28.9 12.213 29.1537 12.4666 29.4666 12.4666C29.7796 12.4666 30.0333 12.213 30.0333 11.9V10.2H32.3ZM28.9 9.06664H14.1666V7.93329H28.9V9.06664ZM32.3 3.4C32.613 3.4 32.8666 3.65374 32.8666 3.96664V6.23329C32.8666 6.54626 32.613 6.79993 32.3 6.79993H30.0334V3.4H32.3ZM28.9 3.4V6.8H14.1666V3.4H28.9ZM13.0334 3.4V6.8H7.93336V3.4H13.0334ZM3.4 1.7C3.4 1.38703 3.65374 1.13336 3.96664 1.13336H6.23329C6.54626 1.13336 6.79993 1.38709 6.79993 1.7V32.3C6.79993 32.613 6.5462 32.8666 6.23329 32.8666H3.96664C3.65367 32.8666 3.4 32.613 3.4 32.3V1.7ZM1.13336 3.96664C1.13336 3.65367 1.38709 3.4 1.7 3.4H2.26664V6.8H1.7C1.38703 6.8 1.13336 6.54626 1.13336 6.23336V3.96664Z" fill="white"/>
<path d="M5.09997 5.66674C5.41292 5.66674 5.66661 5.41304 5.66661 5.10009C5.66661 4.78714 5.41292 4.53345 5.09997 4.53345C4.78702 4.53345 4.53333 4.78714 4.53333 5.10009C4.53333 5.41304 4.78702 5.66674 5.09997 5.66674Z" fill="white"/>
<path fill-rule="evenodd" clip-rule="evenodd" d="M14.7334 27.2C15.4253 27.2 15.8667 27.5355 15.8667 27.7667C15.8667 28.0796 16.1205 28.3333 16.4334 28.3333C16.7464 28.3333 17 28.0796 17 27.7667C17 26.8135 16.0044 26.0667 14.7334 26.0667C13.4624 26.0667 12.4667 26.8135 12.4667 27.7667C12.4667 28.7198 13.4624 29.4667 14.7334 29.4667C15.4253 29.4667 15.8667 29.8021 15.8667 30.0333C15.8667 30.2645 15.4253 30.5999 14.7334 30.5999C14.0414 30.5999 13.6 30.2645 13.6 30.0333C13.6 29.7203 13.3463 29.4667 13.0334 29.4667C12.7205 29.4667 12.4667 29.7203 12.4667 30.0333C12.4667 30.9864 13.4624 31.7333 14.7334 31.7333C16.0044 31.7333 17 30.9865 17 30.0334C17 29.0802 16.0044 28.3334 14.7334 28.3334C14.0415 28.3334 13.6 27.9979 13.6 27.7667C13.6 27.5355 14.0414 27.2 14.7334 27.2Z" fill="white"/>
<path d="M20.3643 26.4344C20.2816 26.2126 20.0699 26.0657 19.8333 26.0657C19.5967 26.0657 19.385 26.2127 19.3023 26.4344L17.6023 30.9677C17.5315 31.1574 17.5672 31.3705 17.696 31.5267C17.8248 31.6829 18.0272 31.7585 18.227 31.7251C18.4267 31.6916 18.5934 31.5541 18.6642 31.3644L19.036 30.3722H20.6306L21.0023 31.3644C21.0849 31.5862 21.2966 31.7333 21.5333 31.7333C21.6012 31.733 21.6685 31.721 21.7322 31.6976C21.873 31.6449 21.9872 31.5384 22.0495 31.4015C22.1118 31.2646 22.1171 31.1086 22.0642 30.9677L20.3643 26.4344ZM19.461 29.24L19.8333 28.2472L20.2056 29.24H19.461Z" fill="white"/>
<path fill-rule="evenodd" clip-rule="evenodd" d="M25.5 30.5999H23.8V26.6333C23.8 26.3203 23.5463 26.0667 23.2334 26.0667C22.9204 26.0667 22.6667 26.3203 22.6667 26.6333V31.1667C22.6667 31.4796 22.9205 31.7333 23.2334 31.7333H25.5C25.813 31.7333 26.0666 31.4796 26.0666 31.1667C26.0666 30.8537 25.813 30.5999 25.5 30.5999Z" fill="white"/>
<path fill-rule="evenodd" clip-rule="evenodd" d="M27.2 26.0667C26.887 26.0667 26.6334 26.3203 26.6334 26.6333V31.1667C26.6334 31.4796 26.8871 31.7333 27.2 31.7333H30.0334C30.3463 31.7333 30.6 31.4796 30.6 31.1667C30.6 30.8537 30.3463 30.6 30.0334 30.6H27.7667V29.4667H30.0334C30.3463 29.4667 30.6 29.2129 30.6 28.9C30.6 28.5871 30.3463 28.3334 30.0334 28.3334H27.7667V27.2H30.0334C30.3463 27.2 30.6 26.9463 30.6 26.6334C30.6 26.3205 30.3463 26.0667 30.0334 26.0667H27.2V26.0667Z" fill="white"/>
<path d="M27.2 23.7999V18.1287C27.6693 18.1213 28.0872 17.8299 28.2562 17.392C28.428 16.9487 28.306 16.4454 27.9502 16.13L27.2 15.4535V12.4666C27.2 11.8406 26.6926 11.3332 26.0666 11.3332H24.9333C24.3333 11.3356 23.8392 11.8052 23.8062 12.4042L22.3158 11.0652C21.8711 10.6645 21.1954 10.6645 20.7507 11.0652L15.1163 16.1272C14.7606 16.4426 14.6385 16.946 14.8103 17.3892C14.9784 17.8282 15.3965 18.121 15.8666 18.1287V23.7999C15.8666 24.4258 16.374 24.9332 16.9999 24.9332H26.0666C26.6926 24.9332 27.2 24.4258 27.2 23.7999ZM24.9333 12.4665H26.0667V14.4351L24.9333 13.4151V12.4665ZM21.5582 11.9084L27.1677 16.9999H21.5333L15.8741 16.9704L21.5582 11.9084ZM20.9666 23.7999V22.0999C20.9666 21.7869 21.2204 21.5332 21.5333 21.5332C21.8462 21.5332 22.0999 21.7869 22.0999 22.0999V23.7999H20.9666ZM23.2333 23.7999V22.0999C23.2333 21.161 22.4722 20.3999 21.5333 20.3999C20.5945 20.3999 19.8333 21.161 19.8333 22.0999V23.7999H17V18.1332H26.0666V23.7999H23.2333Z" fill="white"/>
</g>
<defs>
<clipPath id="clip0_14_37">
<rect width="34" height="34" fill="white"/>
</clipPath>
</defs>
</svg>
