<svg width="34" height="34" viewBox="0 0 34 34" fill="none" xmlns="http://www.w3.org/2000/svg">
<path d="M31.3251 29.6766C31.0773 29.1791 22.6961 12.3563 22.2462 11.4532V1.99219H23.4415C23.9916 1.99219 24.4376 1.5462 24.4376 0.996094C24.4376 0.445984 23.9916 0 23.4415 0C20.7643 0 13.6204 0 10.5587 0C10.0086 0 9.56261 0.445984 9.56261 0.996094C9.56261 1.5462 10.0086 1.99219 10.5587 1.99219H11.754V11.4531C-1.74425 38.5472 4.81469 25.382 2.67575 29.6753C1.68125 31.6644 3.1295 34 5.34853 34H28.6517C30.878 34 32.3154 31.6575 31.3251 29.6766ZM13.6417 12.1317C13.7104 11.9937 13.7462 11.8416 13.7462 11.6875V1.99219H20.254V11.6875C20.254 11.8416 20.2898 11.9937 20.3585 12.1317L23.611 18.6602H19.9572C19.5405 17.4263 18.3728 16.5352 17.0001 16.5352C15.6274 16.5352 14.4597 17.4263 14.043 18.6602H10.3892L13.6417 12.1317ZM18.129 19.6562C18.129 20.2787 17.6226 20.7852 17.0001 20.7852C16.3776 20.7852 15.8712 20.2787 15.8712 19.6562C15.8712 19.0338 16.3776 18.5273 17.0001 18.5273C17.6226 18.5273 18.129 19.0338 18.129 19.6562ZM28.6517 32.0078H5.34853C4.60797 32.0078 4.12626 31.2289 4.45822 30.5649L9.39672 20.6523H14.043C14.4597 21.8862 15.6274 22.7773 17.0001 22.7773C18.3728 22.7773 19.5405 21.8862 19.9572 20.6523H24.6035L29.5426 30.5663C29.8739 31.2289 29.3919 32.0078 28.6517 32.0078Z" fill="white"/>
<path d="M12.7501 23.4414C11.0291 23.4414 9.62903 24.8415 9.62903 26.5625C9.62903 28.2835 11.0291 29.6836 12.7501 29.6836C14.4711 29.6836 15.8712 28.2835 15.8712 26.5625C15.8712 24.8415 14.4711 23.4414 12.7501 23.4414ZM12.7501 27.6914C12.1276 27.6914 11.6212 27.185 11.6212 26.5625C11.6212 25.94 12.1276 25.4336 12.7501 25.4336C13.3726 25.4336 13.879 25.94 13.879 26.5625C13.879 27.185 13.3726 27.6914 12.7501 27.6914Z" fill="white"/>
<path d="M21.1644 24.2429C21.0399 23.6457 20.444 23.3183 19.8987 23.4845C19.349 23.6597 19.082 24.2152 19.2347 24.727C19.4204 25.2967 19.982 25.5374 20.4771 25.3904C21.0018 25.2188 21.255 24.7268 21.1644 24.2429Z" fill="white"/>
<path d="M24.352 26.3679C24.229 25.7781 23.6441 25.4431 23.0856 25.6095C22.5154 25.7954 22.2749 26.3582 22.4222 26.852C22.6056 27.4148 23.1622 27.6647 23.6646 27.5154C24.1992 27.3406 24.4412 26.8448 24.352 26.3679Z" fill="white"/>
<path d="M20.1019 28.4929C19.9776 27.8966 19.3825 27.5681 18.8362 27.7345C18.28 27.9119 18.0216 28.4724 18.1722 28.977C18.358 29.5472 18.9194 29.7875 19.4146 29.6404C19.9396 29.4687 20.1925 28.9766 20.1019 28.4929Z" fill="white"/>
</svg>
