<svg width="34" height="34" viewBox="0 0 34 34" fill="none" xmlns="http://www.w3.org/2000/svg">
<g clip-path="url(#clip0_14_26)">
<path d="M31.9652 5.99797L15.9063 0.0414607C15.7025 -0.0341761 15.4746 -0.00515653 15.2962 0.118957C15.1177 0.24307 15.0113 0.446738 15.0113 0.664086V8.83624L1.99608 14.6175C1.75622 14.724 1.60162 14.9619 1.60162 15.2244V33.336C1.60162 33.7027 1.89892 34 2.26569 34H31.7343C32.1011 34 32.3984 33.7027 32.3984 33.336V6.62059C32.3984 6.34288 32.2256 6.09452 31.9652 5.99797ZM2.92975 30.0989H15.0113V32.6719H2.92975V30.0989ZM11.4168 28.7708H6.52419V24.839H11.4168V28.7708ZM21.9918 32.6719V26.5319H25.4178V32.6719H21.9918ZM31.0703 32.6719H29.6177V28.8082C29.6177 28.4415 29.3204 28.1442 28.9536 28.1442C28.5869 28.1442 28.2896 28.4415 28.2896 28.8082V32.6719H26.746V25.8678C26.746 25.5011 26.4487 25.2038 26.0819 25.2038H21.3277C20.961 25.2038 20.6637 25.5011 20.6637 25.8678V32.6719H19.1199V28.8082C19.1199 28.4415 18.8226 28.1442 18.4559 28.1442C18.0891 28.1442 17.7918 28.4415 17.7918 28.8082V32.6719H16.3394V22.6335C16.3394 22.2668 16.0421 21.9695 15.6754 21.9695C15.3086 21.9695 15.0113 22.2668 15.0113 22.6335V28.7708H12.745V24.175C12.745 23.8082 12.4477 23.5109 12.0809 23.5109H5.86012C5.49336 23.5109 5.19606 23.8082 5.19606 24.175V28.7708H2.92975V15.656L15.0113 10.2895V16.6296C15.0113 16.9964 15.3086 17.2937 15.6754 17.2937C16.0421 17.2937 16.3394 16.9964 16.3394 16.6296V1.61868L31.0703 7.08252V32.6719Z" fill="white"/>
<path d="M15.6752 20.3079C15.3983 20.3079 15.1433 20.1284 15.0506 19.8674C14.958 19.6067 15.0388 19.3064 15.2539 19.1306C15.472 18.9524 15.7864 18.9323 16.0256 19.0803C16.263 19.2272 16.3843 19.5164 16.323 19.7888C16.2557 20.088 15.9825 20.3079 15.6752 20.3079Z" fill="white"/>
<path d="M12.0808 21.6133H5.86023C5.49347 21.6133 5.19617 21.316 5.19617 20.9492V17.2648C5.19617 16.9976 5.35634 16.7564 5.60271 16.6527L9.7438 14.9102C9.82535 14.8758 9.91287 14.8582 10.0013 14.8582H12.0808C12.4475 14.8582 12.7448 15.1555 12.7448 15.5222V20.9492C12.7449 21.316 12.4476 21.6133 12.0808 21.6133ZM6.52429 20.2851H11.4167V16.1863H10.1353L6.52429 17.7058V20.2851Z" fill="white"/>
<path d="M28.9536 14.4404H25.2962C24.9295 14.4404 24.6322 14.1431 24.6322 13.7763V9.23417C24.6322 9.01682 24.7386 8.81316 24.9171 8.68904C25.0955 8.56486 25.3234 8.53591 25.5273 8.61155L29.1847 9.96829C29.445 10.0648 29.6178 10.3132 29.6178 10.5909V13.7763C29.6177 14.1431 29.3204 14.4404 28.9536 14.4404ZM25.9603 13.1122H28.2896V11.0528L25.9603 10.1888V13.1122Z" fill="white"/>
<path d="M22.114 14.4404H18.456C18.0892 14.4404 17.7919 14.1431 17.7919 13.7763V6.92969C17.7919 6.56293 18.0892 6.26562 18.456 6.26562H19.0833C19.1621 6.26562 19.2403 6.27964 19.3142 6.30706L22.3449 7.43086C22.6053 7.52741 22.778 7.77577 22.778 8.05348V13.7763C22.778 14.1431 22.4807 14.4404 22.114 14.4404ZM19.1201 13.1122H21.4499V8.51547L19.1201 7.65152V13.1122Z" fill="white"/>
<path d="M28.9538 23.0322H25.2959C24.9291 23.0322 24.6318 22.7349 24.6318 22.3681V16.8457C24.6318 16.4789 24.9291 16.1816 25.2959 16.1816H28.9538C29.3205 16.1816 29.6178 16.4789 29.6178 16.8457V22.3681C29.6178 22.7349 29.3205 23.0322 28.9538 23.0322ZM25.96 21.7041H28.2898V17.5098H25.96V21.7041Z" fill="white"/>
<path d="M22.1137 23.0322H18.4559C18.0892 23.0322 17.7919 22.7349 17.7919 22.3681V16.8457C17.7919 16.4789 18.0892 16.1816 18.4559 16.1816H22.1137C22.4805 16.1816 22.7778 16.4789 22.7778 16.8457V22.3681C22.7778 22.7349 22.4805 23.0322 22.1137 23.0322ZM19.1199 21.7041H21.4496V17.5098H19.1199V21.7041Z" fill="white"/>
</g>
<defs>
<clipPath id="clip0_14_26">
<rect width="34" height="34" fill="white"/>
</clipPath>
</defs>
</svg>
