<svg width="40" height="40" viewBox="0 0 40 40" fill="none" xmlns="http://www.w3.org/2000/svg">
<g clip-path="url(#clip0_12_492)">
<path d="M39.9442 21.3581C39.8009 20.3226 38.7336 19.4943 36.7344 18.8889C35.1175 18.4031 33.0705 18.1084 30.8403 18.0606V9.56198C30.8403 9.38675 30.7845 9.21949 30.673 9.08409C30.4102 8.16015 29.3429 7.41145 27.495 6.8539C25.7029 6.31228 23.3612 6.01758 20.9 6.01758C18.4468 6.01758 16.129 6.31228 14.3767 6.8539C12.9351 7.29994 11.2067 8.12829 11.2067 9.55402C11.2067 9.64163 11.2147 9.72925 11.2306 9.81686L11.3182 13.4489C6.14894 12.4533 1.15492 15.8543 0.167264 21.0315C0.0557547 21.613 0 22.2103 0 22.8077C0 28.0646 4.27718 32.3418 9.53405 32.3418C11.7244 32.3418 13.8431 31.5851 15.5476 30.2071C17.045 30.5576 18.7973 30.7488 20.6531 30.7647C21.0593 32.971 25.8383 33.9825 30.2987 33.9825C32.7519 33.9825 35.0617 33.6799 36.8299 33.1303C38.2796 32.6842 40 31.8479 40 30.4222V21.6687C40 21.5652 39.9841 21.4537 39.9442 21.3581ZM14.8546 8.3752C16.4636 7.88138 18.6141 7.6026 20.908 7.6026C23.186 7.6026 25.4162 7.88138 27.041 8.3752C28.7694 8.90089 29.1438 9.44251 29.1438 9.55402C29.1438 9.66553 28.7694 10.2151 27.0331 10.7328C25.4162 11.2187 23.186 11.5054 20.908 11.5054C18.7097 11.5054 16.6229 11.2506 15.0378 10.7886C13.3254 10.2948 12.8475 9.74518 12.8076 9.56995C12.8076 9.55402 12.8076 9.54605 12.7997 9.54605C12.8076 9.43454 13.174 8.89293 14.8546 8.3752ZM29.2473 11.5453V13.5843C29.1756 13.6958 29.1358 13.8312 29.1438 13.9666C29.1438 14.0701 28.7694 14.6197 27.0331 15.1454C25.4162 15.6313 23.178 15.918 20.9 15.918C18.9327 15.918 17.0052 15.7109 15.4759 15.3206C15.452 15.3127 15.4361 15.3127 15.4122 15.3047C14.6555 14.7073 13.8192 14.2374 12.9192 13.8949L12.8634 11.6488C13.413 11.9276 13.9865 12.1506 14.5838 12.3099C16.3122 12.8117 18.5504 13.0825 20.9 13.0825C23.3612 13.0825 25.7029 12.7878 27.4871 12.2462C28.1004 12.0789 28.6898 11.84 29.2473 11.5453ZM14.8785 28.6779C11.6368 31.6329 6.61091 31.3939 3.66388 28.1522C0.716846 24.9104 0.947829 19.8846 4.18957 16.9375C5.65512 15.6074 7.55874 14.8666 9.53405 14.8666C10.3305 14.8666 11.127 14.9861 11.8917 15.2171C14.6476 16.0853 16.7264 18.3712 17.3238 21.1988C17.4273 21.7245 17.4831 22.2661 17.4831 22.7997C17.4831 25.0459 16.5352 27.1805 14.8785 28.6779ZM16.9016 28.8531C17.5468 28.0646 18.0645 27.1805 18.4309 26.2326C19.1079 26.2884 19.8248 26.3282 20.5575 26.3362V26.4795L20.5974 29.1797C19.3628 29.1637 18.1282 29.0522 16.9016 28.8531ZM19.0203 21.8599C19.4902 21.8917 19.9761 21.9077 20.4699 21.9156C20.4699 21.9316 20.4779 21.9555 20.4779 21.9714L20.5257 24.7352C19.9602 24.7273 19.4106 24.7034 18.8769 24.6635C18.9964 24.0502 19.0601 23.421 19.0601 22.7997C19.0681 22.4891 19.0522 22.1785 19.0203 21.8599ZM20.9797 20.3306C20.9558 20.3306 20.9319 20.3306 20.908 20.3306C20.1434 20.3306 19.4026 20.2987 18.7176 20.2509C18.415 19.1836 17.9371 18.1801 17.2919 17.288C18.4867 17.4393 19.6894 17.519 20.9 17.519C23.3612 17.519 25.7029 17.2243 27.495 16.6827C28.1083 16.4915 28.6898 16.2605 29.2473 15.9658V18.0765C25.8224 18.1721 22.2859 18.8889 20.9797 20.3306ZM22.047 21.5572C22.1266 21.3342 22.7081 20.8165 24.3409 20.3545C25.8941 19.9164 27.9172 19.6775 30.0438 19.6775H30.1474C32.4253 19.6775 34.6555 19.9403 36.2804 20.4341C37.961 20.9439 38.3592 21.4537 38.3831 21.5891V21.597C38.3751 21.7165 37.9769 22.2661 36.2087 22.7918C34.5759 23.2776 32.4253 23.5405 30.1474 23.5405C27.9968 23.5405 25.9419 23.2936 24.3648 22.8555C22.8435 22.4254 22.2302 21.9395 22.0789 21.6926C22.0709 21.6448 22.0629 21.597 22.047 21.5572ZM38.407 30.4222C38.407 30.5337 38.0486 31.0833 36.36 31.609C34.7431 32.1108 32.5926 32.3895 30.2987 32.3895C27.9968 32.3895 25.8463 32.1187 24.2533 31.6329C22.5647 31.1151 22.2222 30.5815 22.2222 30.462C22.2222 30.4541 22.2222 30.4541 22.2222 30.4461L22.1824 28.1442C24.0781 29.108 27.2401 29.5461 30.1394 29.5461C32.6006 29.5461 34.9263 29.2514 36.7105 28.7097C37.2999 28.5345 37.8654 28.2956 38.407 28.0088V30.4222ZM38.3353 26.0096C38.3353 26.1211 37.9689 26.6627 36.2485 27.1884C34.6157 27.6823 32.4492 27.9531 30.1394 27.9531C25.7666 27.9531 22.8037 26.9734 22.1505 26.2008L22.1346 25.5158L22.1027 23.6918C22.6842 23.9865 23.2895 24.2175 23.9188 24.3848C25.6312 24.8627 27.8375 25.1335 30.1314 25.1335C32.5528 25.1335 34.8626 24.8467 36.6388 24.321C37.2521 24.1458 37.8415 23.9148 38.399 23.6201V25.6671H38.407C38.407 25.7707 38.3353 25.8901 38.3353 26.0096Z" fill="white"/>
<path d="M13.5085 27.0609C13.3492 26.6468 12.8952 26.4476 12.4811 26.599C12.4811 26.591 12.4811 26.591 12.4811 26.591C10.9757 27.1645 9.27914 26.7981 8.14812 25.6591C7.91714 25.452 7.72598 25.2051 7.58261 24.9343H11.6766C12.1147 24.9343 12.4731 24.5759 12.4731 24.1378C12.4731 23.6997 12.1147 23.3413 11.6766 23.3413H7.00117C6.95338 23.0546 6.94541 22.7599 6.97727 22.4652H12.0908C12.5288 22.4652 12.8873 22.1067 12.8873 21.6687C12.8873 21.2306 12.5288 20.8722 12.0908 20.8722H7.4472C7.63836 20.5297 7.86935 20.219 8.14015 19.9323C9.27914 18.8013 10.9757 18.4349 12.4731 19.0163C12.8873 19.1756 13.3413 18.9685 13.5006 18.5623C13.6599 18.1482 13.4528 17.6941 13.0466 17.5348C10.9597 16.7304 8.59416 17.2322 7.00913 18.8172C6.41972 19.3986 5.97369 20.0996 5.69491 20.8801H4.56389C4.12582 20.8801 3.7674 21.2386 3.7674 21.6766C3.7674 22.1147 4.12582 22.4731 4.56389 22.4731H5.36039C5.34446 22.7678 5.34446 23.0546 5.37632 23.3493H4.56389C4.12582 23.3493 3.7674 23.7077 3.7674 24.1458C3.7674 24.5838 4.12582 24.9423 4.56389 24.9423H5.78253C6.05334 25.6352 6.47548 26.2724 7.00913 26.7981C8.58619 28.3831 10.9518 28.8929 13.0466 28.0884C13.4607 27.9291 13.6599 27.4751 13.5085 27.0609Z" fill="white"/>
</g>
<defs>
<clipPath id="clip0_12_492">
<rect width="40" height="40" fill="white"/>
</clipPath>
</defs>
</svg>
