<svg width="34" height="34" viewBox="0 0 34 34" fill="none" xmlns="http://www.w3.org/2000/svg">
<g clip-path="url(#clip0_12_514)">
<path d="M29.5563 8.79676C31.97 8.79676 33.9337 6.83311 33.9337 4.41938C33.9337 2.00564 31.9701 0.0419922 29.5563 0.0419922C27.1427 0.0419922 25.179 2.00571 25.179 4.41938C25.179 6.83305 27.1427 8.79676 29.5563 8.79676ZM29.5563 2.03023C30.8737 2.03023 31.9454 3.10199 31.9454 4.41938C31.9454 5.73669 30.8737 6.80846 29.5563 6.80846C28.239 6.80846 27.1673 5.73676 27.1673 4.41938C27.1673 3.10199 28.239 2.03023 29.5563 2.03023Z" fill="white"/>
<path d="M33.0058 31.9699H32.2956V23.0971C32.4821 23.256 32.7109 23.3349 32.9392 23.3349C33.2137 23.3349 33.4869 23.2219 33.6833 23.0005C34.0477 22.5898 34.0101 21.9614 33.5994 21.5971L30.685 19.0118V13.8595C30.685 13.3105 30.2399 12.8654 29.6909 12.8654C29.1418 12.8654 28.6967 13.3105 28.6967 13.8595V17.248L23.4835 12.6234V7.47799C23.4835 3.38327 20.1523 0.052002 16.0575 0.052002C11.9628 0.052002 8.63156 3.38327 8.63156 7.47799V9.63735C7.54329 7.60822 6.49393 6.17452 6.40313 6.05158C6.2157 5.79787 5.91898 5.64822 5.60357 5.64822C5.28816 5.64822 4.99144 5.79794 4.80401 6.05158C4.61048 6.31357 0.0640897 12.5274 0.0640897 17.7732C0.0640897 20.3335 0.574686 22.7562 1.50183 24.595C2.31969 26.2171 3.3996 27.2633 4.60942 27.6325V31.9698H0.994152C0.445115 31.9698 0 32.4149 0 32.9639C0 33.513 0.445115 33.9581 0.994152 33.9581H33.0058C33.5549 33.9581 34 33.513 34 32.9639C34 32.415 33.5549 31.9699 33.0058 31.9699ZM17.0966 31.9699H15.1083V24.5849H17.0966V31.9699ZM18.0908 22.5966H14.1142C13.5651 22.5966 13.12 23.0417 13.12 23.5907V31.9699H11.1317V21.3346L20.7195 12.8294L30.3073 21.3346V31.9699H19.0849V23.5907C19.0849 23.0417 18.6399 22.5966 18.0908 22.5966ZM10.6198 7.47799C10.6198 4.47962 13.0591 2.04031 16.0575 2.04031C19.0558 2.04031 21.4952 4.47962 21.4952 7.47799V10.8596L21.3792 10.7567C21.0028 10.4228 20.4362 10.4228 20.0598 10.7567L17.0016 13.4696V8.18403C17.0016 7.635 16.5565 7.18988 16.0074 7.18988C15.4584 7.18988 15.0133 7.635 15.0133 8.18403V11.2141L14.3508 10.545C13.9645 10.1548 13.3351 10.1517 12.9449 10.5381C12.5547 10.9244 12.5516 11.5538 12.9379 11.944L15.0133 14.0402V15.2335L11.8615 18.0294C11.5615 17.6454 11.2747 17.2167 11.0975 16.8439C11.0212 16.0314 10.8515 15.206 10.6198 14.3918V7.47799ZM3.27706 23.6999C2.48724 22.1334 2.0522 20.0286 2.0522 17.7732C2.0522 14.4241 4.34749 10.3794 5.6039 8.4164C6.49658 9.80954 7.91193 12.2517 8.65741 14.7524C8.66649 14.7921 8.67828 14.8307 8.692 14.8685C8.97613 15.8501 9.15462 16.8382 9.15462 17.7733C9.15462 18.7742 9.06852 19.7451 8.90422 20.6528L7.83968 21.5971C7.42897 21.9615 7.39132 22.5898 7.75571 23.0005C7.86262 23.121 7.99258 23.2085 8.13283 23.2641C8.06774 23.4131 8.00074 23.5594 7.92982 23.7C7.2589 25.0306 6.41095 25.7937 5.60344 25.7937C4.79592 25.7937 3.94798 25.0305 3.27706 23.6999ZM6.59759 27.6326C7.54773 27.3426 8.41755 26.6346 9.14341 25.5583V31.9698H6.59759V27.6326Z" fill="white"/>
<path d="M22.2092 29.389H27.0135C27.5625 29.389 28.0076 28.9439 28.0076 28.3949V23.5906C28.0076 23.0416 27.5625 22.5964 27.0135 22.5964H22.2092C21.6602 22.5964 21.2151 23.0416 21.2151 23.5906V28.3949C21.2151 28.9439 21.6602 29.389 22.2092 29.389ZM23.2034 24.5847H26.0193V27.4007H23.2034V24.5847Z" fill="white"/>
</g>
<defs>
<clipPath id="clip0_12_514">
<rect width="34" height="34" fill="white"/>
</clipPath>
</defs>
</svg>
