<svg width="18" height="18" viewBox="0 0 18 18" fill="none" xmlns="http://www.w3.org/2000/svg">
<path d="M1.6875 3.375C1.6875 2.44302 2.44302 1.6875 3.375 1.6875H14.625C15.557 1.6875 16.3125 2.44302 16.3125 3.375V14.625C16.3125 15.557 15.557 16.3125 14.625 16.3125H3.375C2.44302 16.3125 1.6875 15.557 1.6875 14.625V3.375ZM7.52275 4.85225C7.30308 4.63258 6.94692 4.63258 6.72725 4.85225C6.50758 5.07192 6.50758 5.42808 6.72725 5.64775L10.0795 9L6.72725 12.3523C6.50758 12.5719 6.50758 12.9281 6.72725 13.1477C6.94692 13.3674 7.30308 13.3674 7.52275 13.1477L11.2727 9.39775C11.4924 9.17808 11.4924 8.82192 11.2727 8.60225L7.52275 4.85225Z" fill="#02B4BD"/>
</svg>
