<svg width="57" height="57" viewBox="0 0 57 57" fill="none" xmlns="http://www.w3.org/2000/svg">
<g clip-path="url(#clip0_8_61)">
<path d="M14.8426 44.0115C11.0404 44.0115 7.65832 41.577 6.43021 37.9527L6.34714 37.6796C6.05751 36.7198 5.93618 35.9126 5.93618 35.105V18.9116L0.174368 38.1449C-0.566678 40.9738 1.12199 43.9067 3.95527 44.6882L40.681 54.5236C41.1393 54.6423 41.5977 54.6993 42.0491 54.6993C44.4145 54.6993 46.5759 53.1293 47.1816 50.8157L49.3213 44.0115H14.8426Z" fill="#006166"/>
<path d="M21.3742 19.0733C23.994 19.0733 26.1241 16.9428 26.1241 14.323C26.1241 11.7033 23.994 9.57275 21.3742 9.57275C18.7545 9.57275 16.624 11.7033 16.624 14.323C16.624 16.9428 18.7545 19.0733 21.3742 19.0733Z" fill="#02B4BD"/>
<path d="M51.0622 2.44775H15.4363C12.1638 2.44775 9.49878 5.11274 9.49878 8.38569V34.511C9.49878 37.784 12.1638 40.449 15.4363 40.449H51.0622C54.3351 40.449 57.0001 37.784 57.0001 34.511V8.38569C57.0001 5.11274 54.3351 2.44775 51.0622 2.44775ZM15.4363 7.19802H51.0622C51.718 7.19802 52.2498 7.72988 52.2498 8.38569V25.2462L44.7472 16.4915C43.9513 15.5583 42.7993 15.0595 41.5621 15.0312C40.3318 15.0381 39.1776 15.5844 38.3891 16.5298L29.5679 27.1175L26.6942 24.2508C25.0699 22.6265 22.4262 22.6265 20.8041 24.2508L14.249 30.8036V8.38569C14.249 7.72988 14.7809 7.19802 15.4363 7.19802Z" fill="#02B4BD"/>
</g>
<defs>
<clipPath id="clip0_8_61">
<rect width="57" height="57" fill="white"/>
</clipPath>
</defs>
</svg>
