<svg width="201" height="76" viewBox="0 0 201 76" fill="none" xmlns="http://www.w3.org/2000/svg">
<g clip-path="url(#clip0_5_8)">
<path d="M201 51.0368C201 55.3988 199.233 59.5822 196.088 62.6666C192.943 65.7511 188.677 67.4839 184.229 67.4839C182.512 67.4889 180.804 67.2301 179.167 66.717C177.779 68.8199 175.92 70.584 173.731 71.8748C171.542 73.1656 169.081 73.9489 166.536 74.165C163.991 74.381 161.43 74.0242 159.047 73.1216C156.664 72.2191 154.523 70.7947 152.787 68.9571C150.98 71.2654 148.634 73.1139 145.946 74.3472C143.258 75.5804 140.308 76.1622 137.343 76.0435C134.378 75.9248 131.485 75.1092 128.909 73.6652C126.333 72.2212 124.148 70.1913 122.538 67.7463C119.163 70.5516 115.147 72.5171 110.832 73.4761C106.517 74.4351 102.03 74.3593 97.7511 73.2552C93.4722 72.1511 89.528 70.0512 86.253 67.1336C82.978 64.216 80.4688 60.5668 78.9383 56.4955C77.4077 52.4242 76.901 48.051 77.461 43.7467C78.021 39.4425 79.6313 35.3342 82.1553 31.7703C84.6792 28.2064 88.0424 25.2921 91.9595 23.2745C95.8767 21.257 100.232 20.1957 104.657 20.1807C106.594 20.176 108.526 20.379 110.418 20.7861C111.96 15.1494 115.252 10.1231 119.839 6.40436C124.425 2.68563 130.077 0.458861 136.012 0.0329801C141.947 -0.392901 147.87 1.00322 152.959 4.02765C158.048 7.05209 162.051 11.5549 164.413 16.9114H165.092C170.44 16.915 175.625 18.7217 179.776 22.0285C183.927 25.3353 186.792 29.9412 187.892 35.0739C191.598 35.8836 194.914 37.9043 197.296 40.8047C199.677 43.705 200.984 47.3129 201 51.0368Z" fill="#02B4BD"/>
<path d="M9.30098 31.7847H13.149V51.3598C13.149 59.1293 9.25983 61.4501 4.11548 61.4501C2.71432 61.4471 1.32345 61.2153 0 60.764L0.576167 57.6763C1.61016 58.0518 2.70422 58.2432 3.80682 58.2414C7.26382 58.2414 9.30098 56.7278 9.30098 50.9966V31.7847Z" fill="#20262B"/>
<path d="M37.3686 55.3149C37.3686 57.4743 37.3686 59.351 37.5332 61.0462H34.0968L33.8704 57.6155C33.1417 58.8249 32.0985 59.8229 30.8476 60.5072C29.5966 61.1915 28.1828 61.5377 26.7506 61.5104C23.3965 61.5104 19.3633 59.6941 19.3633 52.308V40.0181H23.2525V51.6623C23.2525 55.6984 24.5077 58.342 28.047 58.342C29.5079 58.3314 30.9053 57.7547 31.9345 56.7378C32.9637 55.7209 33.5412 54.3462 33.5412 52.9134V40.0181H37.4303L37.3686 55.3149Z" fill="#20262B"/>
<path d="M43.2125 57.1315C44.7575 58.0801 46.5346 58.603 48.3569 58.6451C51.176 58.6451 52.4723 57.2728 52.4723 55.5171C52.4723 53.7614 51.4435 52.712 48.6038 51.6626C44.7558 50.3105 42.945 48.2319 42.945 45.6084C42.945 42.2181 45.7435 39.5542 50.3323 39.5542C52.1719 39.5361 53.9856 39.9808 55.6001 40.8458L54.633 43.6307C53.3171 42.8309 51.798 42.4112 50.25 42.4199C47.9453 42.4199 46.6695 43.7114 46.6695 45.2855C46.6695 46.8596 47.9453 47.7879 50.785 48.8373C54.4889 50.2298 56.4026 52.046 56.4026 55.174C56.4026 58.867 53.4806 61.4703 48.3774 61.4703C46.2821 61.5084 44.2124 61.0149 42.3688 60.0375L43.2125 57.1315Z" fill="#20262B"/>
<path d="M66.0534 33.9844V40.0385H71.6299V42.9647H66.0534V54.286C66.0534 56.8893 66.8148 58.3221 68.9754 58.3221C69.7387 58.3381 70.5005 58.2498 71.2389 58.0598L71.4036 60.9254C70.3013 61.3083 69.1359 61.4863 67.9671 61.4501C67.1968 61.4937 66.4258 61.3759 65.7056 61.1045C64.9853 60.8331 64.3323 60.4143 63.7899 59.876C62.6126 58.3295 62.0627 56.4094 62.2466 54.4878V42.9445H58.9337V40.0184H62.2466V34.9934L66.0534 33.9844Z" fill="#20262B"/>
<path d="M108.114 59.6133C105.615 60.6127 102.93 61.0871 100.233 61.0058C91.8163 61.0058 85.4785 55.779 85.4785 46.1932C85.3604 44.1521 85.6816 42.1094 86.4213 40.198C87.1609 38.2866 88.3024 36.5493 89.7716 35.0989C91.2408 33.6485 93.0048 32.5176 94.9488 31.7797C96.8929 31.0417 98.9736 30.7133 101.056 30.8156C103.493 30.7167 105.921 31.1654 108.155 32.1274L107.208 35.215C105.326 34.3657 103.272 33.9449 101.2 33.984C94.2033 33.984 89.5528 38.3834 89.5528 46.0923C89.5528 53.2564 93.6683 57.8778 101.014 57.8778C103.179 57.9092 105.325 57.4896 107.311 56.6468L108.114 59.6133Z" fill="white"/>
<path d="M112.805 29.7461H116.694V60.5416H112.805V29.7461Z" fill="white"/>
<path d="M125.522 50.7544C125.436 51.7254 125.566 52.7033 125.903 53.6202C126.241 54.5371 126.777 55.371 127.476 56.0641C128.175 56.7572 129.019 57.2929 129.95 57.634C130.882 57.9751 131.877 58.1135 132.868 58.0396C134.901 58.1089 136.925 57.7368 138.795 56.9498L139.474 59.6944C137.214 60.6186 134.781 61.0656 132.333 61.0061C125.748 61.0061 121.798 56.748 121.798 50.4113C121.798 44.0746 125.522 39.0698 131.695 39.0698C138.692 39.0698 140.564 45.124 140.564 48.9785C140.552 49.5727 140.504 50.1657 140.42 50.7544H125.522ZM136.943 48.0098C136.943 45.5881 135.914 41.8144 131.531 41.8144C127.6 41.8144 125.872 45.3662 125.563 48.0098H136.943Z" fill="white"/>
<path d="M157.294 60.5417L156.985 57.8981H156.841C156.076 58.9071 155.075 59.7201 153.921 60.2682C152.768 60.8163 151.496 61.0832 150.215 61.0463C149.372 61.0987 148.527 60.981 147.732 60.7003C146.938 60.4196 146.21 59.982 145.595 59.4145C144.98 58.847 144.49 58.1617 144.155 57.401C143.821 56.6403 143.649 55.8205 143.651 54.9921C143.651 49.9066 148.26 47.1217 156.553 47.162V46.7382C156.638 46.0867 156.571 45.4248 156.357 44.8023C156.144 44.1799 155.789 43.6131 155.319 43.1448C154.849 42.6765 154.277 42.3188 153.646 42.0988C153.015 41.8788 152.342 41.8022 151.676 41.8747C149.707 41.8796 147.777 42.4173 146.099 43.4286L145.215 40.9262C147.344 39.6729 149.789 39.0297 152.273 39.0696C158.816 39.0696 160.504 43.4488 160.504 47.6665V55.5168C160.473 57.2052 160.59 58.8932 160.853 60.5619L157.294 60.5417ZM156.717 49.8259C152.458 49.725 147.643 50.4716 147.643 54.5481C147.603 55.0324 147.671 55.5193 147.84 55.9759C148.009 56.4324 148.277 56.848 148.624 57.1943C148.971 57.5407 149.391 57.8098 149.853 57.9835C150.316 58.1571 150.811 58.2312 151.306 58.2008C152.438 58.2322 153.552 57.9086 154.484 57.2772C155.417 56.6458 156.12 55.7393 156.491 54.6894C156.636 54.2942 156.712 53.8782 156.717 53.4584V49.8259Z" fill="white"/>
<path d="M166.677 45.245C166.677 43.0655 166.677 41.2089 166.512 39.5541H169.969L170.175 43.0251H170.278C170.966 41.7795 171.99 40.7438 173.239 40.0318C174.488 39.3198 175.912 38.959 177.357 38.989C180.32 38.989 184.929 40.7246 184.929 47.929V60.5419H181.081V48.4335C181.081 45.0432 179.805 42.2179 176.122 42.2179C174.939 42.2398 173.795 42.6314 172.854 43.3355C171.914 44.0397 171.228 45.0197 170.895 46.133C170.72 46.7088 170.637 47.3079 170.648 47.9088V60.5419H166.677V45.245Z" fill="white"/>
</g>
<defs>
<clipPath id="clip0_5_8">
<rect width="201" height="76" fill="white"/>
</clipPath>
</defs>
</svg>
