<svg width="25" height="25" viewBox="0 0 25 25" fill="none" xmlns="http://www.w3.org/2000/svg">
<path d="M22.5928 17.804C21.9502 17.2651 18.1811 14.8783 17.5546 14.9879C17.2605 15.0401 17.0355 15.2908 16.4333 16.0092C16.1548 16.3628 15.8489 16.6939 15.5186 16.9996C14.9133 16.8534 14.3274 16.6362 13.773 16.3526C11.5989 15.2941 9.84257 13.5372 8.78475 11.3629C8.5011 10.8085 8.28391 10.2226 8.13769 9.61726C8.44338 9.28689 8.77454 8.98105 9.12813 8.70256C9.84578 8.10035 10.0973 7.87682 10.1495 7.58123C10.259 6.95329 7.87005 3.18564 7.33328 2.543C7.10828 2.27682 6.90387 2.09814 6.6421 2.09814C5.88328 2.09814 2.45093 6.34226 2.45093 6.89226C2.45093 6.93712 2.52446 11.3555 8.1046 17.0327C13.7818 22.6129 18.2002 22.6864 18.245 22.6864C18.795 22.6864 23.0392 19.254 23.0392 18.4952C23.0392 18.2334 22.8605 18.029 22.5928 17.804Z" fill="white"/>
<path d="M17.8921 11.6568H19.3627C19.3609 10.0972 18.7406 8.60203 17.6379 7.49925C16.5351 6.39647 15.0399 5.77617 13.4803 5.77441V7.245C14.6501 7.24617 15.7715 7.71135 16.5986 8.53847C17.4258 9.36558 17.8909 10.4871 17.8921 11.6568Z" fill="white"/>
<path d="M21.5686 11.657H23.0392C23.0363 9.12271 22.0282 6.69308 20.2362 4.90108C18.4442 3.10909 16.0146 2.10106 13.4803 2.09814V3.56873C15.6247 3.57126 17.6805 4.42423 19.1968 5.94052C20.7131 7.45681 21.5661 9.51261 21.5686 11.657Z" fill="white"/>
</svg>
