<svg width="16" height="16" viewBox="0 0 16 16" fill="none" xmlns="http://www.w3.org/2000/svg">
<path d="M7.92502 0.915224C8.09846 0.549279 8.61919 0.54928 8.79263 0.915225L10.7252 4.99265C10.7951 5.14031 10.9354 5.24223 11.0975 5.26316L15.5725 5.84111C15.9742 5.89298 16.1351 6.38822 15.8406 6.66626L12.56 9.7642C12.4412 9.87638 12.3876 10.0413 12.4177 10.2019L13.2509 14.6365C13.3257 15.0345 12.9044 15.3406 12.549 15.1465L8.58893 12.9837C8.44553 12.9054 8.27213 12.9054 8.12872 12.9837L4.16862 15.1465C3.8132 15.3406 3.39193 15.0345 3.46671 14.6365L4.29991 10.2019C4.33008 10.0413 4.2765 9.87638 4.1577 9.7642L0.877015 6.66626C0.582577 6.38822 0.743492 5.89298 1.14512 5.84111L5.62017 5.26316C5.78223 5.24223 5.92251 5.14031 5.99249 4.99265L7.92502 0.915224Z" fill="#02B4BD"/>
</svg>
